<?xml version="1.0" encoding="utf-8"?>
<!-- Generator: Adobe Illustrator 26.0.0, SVG Export Plug-In . SVG Version: 6.00 Build 0)  -->
<svg version="1.1" id="Capa_1" xmlns="http://www.w3.org/2000/svg" xmlns:xlink="http://www.w3.org/1999/xlink" x="0px" y="0px"
	 viewBox="0 0 1080 1080" style="enable-background:new 0 0 1080 1080;" xml:space="preserve">
<style type="text/css">
	.st0{fill:#00ADC2;}
</style>
<g>
	<path class="st0" d="M1079.1,848.2c0-15.7-2.4-18.1-18.2-18.1c-25.4,0-50.8-0.2-76.3,0.1c-7.7,0.1-11-2.9-10.4-10.5
		c0.2-3.1,0-6.2,0-9.3c0-158.2,0-316.4,0-474.6c0-36.4-0.1-72.9,0.1-109.3c0-9.2-3.3-16.3-9.8-22.5c-7.4-7.2-16.3-8-25.9-8
		c-264.7,0.1-529.4,0.2-794-0.3c-22.2,0-40.7,12.5-40.6,40.4c0.7,192.4,0.4,384.7,0.4,577.1c0,3.1-0.1,6.2-0.1,9.3
		c0,4.8-2.3,7.4-7.2,7.4c-2.5,0-5.1,0.1-7.6,0.1c-23.7,0-47.5-0.1-71.2,0.1c-10.9,0.1-16.8,4.6-17.2,13.5c-0.5,11-0.1,22-0.1,33
		c0,4.8,2.4,7.4,7.2,7.5c3.1,0.1,6.2,0.1,9.3,0.1c173.7,0,347.4,0,521.2,0s347.4,0,521.2,0c3.1,0,6.2-0.1,9.3,0
		c6.7,0.2,9.9-3.1,9.8-9.8C1079,865.7,1079.1,857,1079.1,848.2z M441.8,819.9c0,10.4-1.2,11.7-11.7,11.7c-30.8,0.1-61.5,0.1-92.3,0
		c-9.8,0-11.2-1.5-11.2-11.5c0-66.3,0-132.7,0-199c0-10.6,0.9-11.4,11.8-11.5c30.8,0,61.5-0.1,92.3,0c10.2,0,11.1,0.9,11.1,11.2
		c0.1,33.6,0,67.2,0,100.8C441.8,754.4,441.8,787.1,441.8,819.9z M572.1,831.6c-21.7,0.1-43.5,0.1-65.2,0c-11.1,0-12.5-1.5-12.5-13
		c0-33,0-66.1,0-99.1c0-32.7,0-65.5,0-98.2c0-10.7,0.9-11.5,11.7-11.6c22-0.1,44-0.1,66.1,0c10.2,0,11.9,1.7,11.9,11.8
		c0.1,66.1,0.1,132.1,0,198.2C584,830,582.4,831.6,572.1,831.6z M752,819.7c0,10.2-1.7,11.9-11.9,11.9c-30.8,0.1-61.6,0.1-92.4,0
		c-9.9,0-10.9-1.1-10.9-11.4c0-33.1,0-66.1,0-99.2c0-33.3,0-66.7,0-100c0-10.3,0.9-11.2,11.2-11.2c31.1-0.1,62.2,0.1,93.2-0.1
		c8-0.1,11,2.8,10.9,10.9C751.9,686.9,752,753.3,752,819.7z M921.5,810.7c0,15.4-0.5,15.8-15.6,15.8c-29.7,0-59.3,0-89,0
		c-12.7,0-13.9-1.2-13.9-14.2c0-74,0-148,0-222c0-23-10.2-33.3-32.9-33.3c-154.5,0-309,0-463.5,0c-22.6,0-32.7,10.1-32.7,32.5
		c0,73.4,0,146.9,0,220.3c0,14.9-0.3,15.2-15.1,15.2c-29.9,0-59.9,0-89.8,0c-10.9,0-11.8-0.9-11.8-11.4c0-183.6,0-367.2,0-550.8
		c0-12.3,2.1-14.2,15.3-14.2c122.6,0,245.2,0,367.8,0c121.7,0,243.5,0,365.2,0c15.5,0,16.2,0.6,16.2,16.3
		C921.6,446.9,921.5,628.8,921.5,810.7z"/>
	<path class="st0" d="M704.6,391.8c8.5-4.3,14.1-10,16.2-18.5c4.9-19.5-3.9-35-23.2-40.7c-20.3-5.9-40.7-4.2-61.2-1.2
		c-7.4,1.1-10,4-10,11.4c0.3,35,0.3,70,0,104.9c-0.1,7.7,3.1,10.8,10.3,11c15.5,0.5,30.9,2.2,46.3,0c13.2-1.9,26.7-4.1,35.6-15.4
		C731.8,426.7,725.8,404.2,704.6,391.8z M654.1,355.8c0.8-3.2,2.5-5,5.7-5.2c3.7-0.2,7.3,0,11,0c0-0.2,0-0.4,0-0.5
		c3.9,0.3,7.9,0.2,11.8,1c7.4,1.6,11.7,6,12,14.1c0.3,8.3-3.3,13.4-11.3,15.5c-1.6,0.4-3.3,0.8-5,1.1
		C656.6,385.7,648.9,377.4,654.1,355.8z M687.2,436.5c-8.8,2.8-17.8,2.1-26.8,1.8c-4.1-0.1-6.2-2.4-6.3-6.4
		c-0.1-3.1-0.1-6.2-0.1-9.3c0.1-20-1.7-18,18.2-17.7c4.2,0,8.5-0.4,12.7,0.1c9,1.2,13.5,6.2,14.2,15.1
		C699.5,427.8,695.2,433.9,687.2,436.5z"/>
	<path class="st0" d="M562.2,349.7c-7.6-22.8-2.6-19.3-27-19.6c-2,0-4,0-5.9,0c-14.3,0-14.3,0-18.7,13.6
		c-10.4,32.2-20.9,64.5-31.2,96.8c-6.1,19.1-9.5,18.3,14,18.4c6.1,0,9.3-2.4,10.8-8.3c1.6-6.6,4-12.9,5.9-19.4
		c1.3-4.5,4.1-6.4,8.7-6.3c7.1,0.1,14.1-0.1,21.2,0c21.1,0.3,17.7-3,24.4,18.4c5.2,16.7,2.9,15.4,21.4,15.4c0.6,0,1.1,0,1.7,0
		c8.4-0.3,9.3-1.5,6.7-9.8C583.6,415.8,573.2,382.7,562.2,349.7z M544.1,401.2c-0.3,0-0.6,0-0.8,0c-24.5,2-24.5,1.9-17.5-21.5
		c2.7-9.1,5.7-18,8.6-27c0.7,0.1,1.4,0.2,2.1,0.3c4.3,13.7,8.5,27.4,12.8,41.1C550.7,398.7,549,401.1,544.1,401.2z"/>
	<path class="st0" d="M440.3,434.7c-4.2,0.1-8.4,1.6-12.6,1.5c-19.3-0.7-37.4-3.4-40.8-31.8c-1-8.3-0.6-16.3,0.8-24.4
		c2.5-14.6,11.7-23.4,26-26.3c10.5-2.1,20.8-1.3,31.1,0.5c5.3,0.9,7.3-0.7,7.3-6c0-17.5,0.9-17.9-15.5-18.8
		c-1.1-0.1-2.2-0.5-3.3-0.6c-19-1.3-37.5,0.5-53.4,11.8c-18.5,13.2-24.2,32.5-22.8,53.6c0,4.1-0.1,7.5,0,10.9
		c0.7,25.5,15.5,44.9,39.9,51.6c15.5,4.2,31.2,4.4,46.9,1c8.1-1.8,10.8-8.3,8.1-20.5C450.1,429.3,444.3,434.6,440.3,434.7z"/>
</g>
</svg>
